<svg width="201" height="201" viewBox="0 0 201 201" fill="none" xmlns="http://www.w3.org/2000/svg">
<path fill-rule="evenodd" clip-rule="evenodd" d="M50.2568 26.2578H115.917V42.5891H50.2568C31.6002 42.5891 16.3313 57.8536 16.3313 76.5147V150.373C16.3313 169.03 31.5957 184.299 50.2568 184.299H124.116C142.772 184.299 158.041 169.035 158.041 150.373V84.4862H174.373V150.373C174.373 178.015 151.757 200.63 124.116 200.63H50.2568C22.6156 200.63 0 178.015 0 150.373V76.5147C0 48.8734 22.6156 26.2578 50.2568 26.2578Z" fill="#21CDAA"/>
<path d="M87.1237 160.889C111.819 160.889 128.199 150.101 128.199 133.85C128.199 123.71 121.96 116.042 110.65 111.623C120.398 107.593 125.727 100.576 125.727 91.3461C125.727 76.1396 109.998 65.999 86.3426 65.999C65.2847 65.999 48.6455 79.6478 48.6455 97.327H66.8424C66.8424 88.6191 75.162 82.5088 86.6015 82.5088C98.6881 82.5088 106.097 86.6686 106.097 93.4261C106.097 101.223 100.38 104.995 86.2087 104.995H78.148V119.032H86.3382C101.286 119.032 108.695 123.843 108.695 131.641C108.695 139.438 100.764 144.25 87.7664 144.25C74.1176 144.25 64.3697 137.229 64.3697 126.834H46.1729C46.1729 146.2 63.9814 160.889 87.1192 160.889H87.1237Z" fill="#21CDAA"/>
<path d="M131.382 42.8968H157.247V69.0251H174.145V42.8968H200.014V26.2576H174.145V0H157.247V26.2576H131.382V42.8968Z" fill="#21CDAA"/>
</svg>
